<?xml version="1.0" encoding="utf-8"?>
<!DOCTYPE svg PUBLIC "-//W3C//DTD SVG 1.1//EN" "http://www.w3.org/Graphics/SVG/1.1/DTD/svg11.dtd">
<svg version="1.1" xmlns="http://www.w3.org/2000/svg" xmlns:xlink="http://www.w3.org/1999/xlink" x="0px" y="0px" viewBox="0 0 1000 1000" enable-background="new 0 0 1000 1000" xml:space="preserve">
<g><path d="M337.9,370c0,93.7,75.9,169.6,169.6,169.6c93.7,0,169.6-75.9,169.6-169.6s-75.9-169.6-169.6-169.6C413.9,200.3,337.9,276.3,337.9,370L337.9,370z"/><path d="M513.2,539.6c-171.5,0-311,139.5-311,311c0,13.2,1.9,28.3,3.8,41.5c81,62.2,182.8,98,294,98c124.4,0,237.5-47.1,322.3-122.5c0-5.7,0-11.3,0-17C824.2,677.2,684.7,539.6,513.2,539.6z"/><path d="M500,990C228.6,990,10,769.5,10,500S230.5,10,500,10c269.5,0,490,220.5,490,490S771.4,990,500,990z M500,27C239.9,27,28.8,238,28.8,498.1c0,260.1,211.1,471.2,471.2,471.2c260.1,0,471.2-211.1,471.2-471.2C971.2,238,760.1,27,500,27z"/></g>
</svg>
