<?xml version="1.0" encoding="UTF-8" standalone="no"?>
<svg
   style="overflow:visible;opacity:1"
   id="__tmb-270"
   viewBox="0 0 519 119"
   version="1.1"
   sodipodi:docname="logo-with-text.svg"
   width="519"
   height="119"
   inkscape:version="1.2.1 (9c6d41e410, 2022-07-14)"
   xmlns:inkscape="http://www.inkscape.org/namespaces/inkscape"
   xmlns:sodipodi="http://sodipodi.sourceforge.net/DTD/sodipodi-0.dtd"
   xmlns="http://www.w3.org/2000/svg"
   xmlns:svg="http://www.w3.org/2000/svg">
  <defs
     id="defs27" />
  <sodipodi:namedview
     id="namedview25"
     pagecolor="#ffffff"
     bordercolor="#000000"
     borderopacity="0.25"
     inkscape:showpageshadow="2"
     inkscape:pageopacity="0.0"
     inkscape:pagecheckerboard="0"
     inkscape:deskcolor="#d1d1d1"
     showgrid="false"
     inkscape:zoom="2.8284271"
     inkscape:cx="211.07137"
     inkscape:cy="98.464619"
     inkscape:window-width="2560"
     inkscape:window-height="1384"
     inkscape:window-x="1920"
     inkscape:window-y="19"
     inkscape:window-maximized="1"
     inkscape:current-layer="_ulBRnfcOj3VyDQUqUOEKd"
     showborder="false" />
  <rect
     x="0"
     y="0"
     width="512"
     height="512"
     fill="none"
     id="rect2" />
  <svg
     viewBox="0 0 512 512"
     data-svgdocument=""
     id="_ulBRnfcOj3VyDQUqUOEKd"
     class="fl-svgdocument"
     overflow="hidden"
     style="overflow:visible"
     version="1.1"
     width="100%"
     height="100%"
     transform="translate(3.5)">
    <rect
       fill="none"
       x="31.94459"
       y="0"
       width="100%"
       height="100%"
       id="rect4" />
    <defs
       id="_FS__db40CzrMADV5NKuuW"
       transform="matrix(2.1431543827056885, 0, 0, 2.1431543827056885, -72.2154769897461, -24.324373245239258)">
      <linearGradient
         id="o_f0e2g634c_3810"
         x1="56.353603"
         y1="37.105968"
         x2="86.575439"
         y2="37.105968"
         gradientTransform="scale(1.0745542,0.93061851)"
         gradientUnits="userSpaceOnUse">
        <stop
           id="_Uf-Qhgm0orNVLQFkSeLAv"
           offset="0%"
           stop-color="rgb(0, 136, 255)"
           stop-opacity="0.55" />
        <stop
           id="_7xsj3EiEHsXRJ-gMIEYK9"
           offset="100%"
           stop-color="rgb(0, 136, 255)"
           stop-opacity="0.55" />
      </linearGradient>
      <linearGradient
         id="o_f0e2g634c_3811"
         x1="31.419058"
         y1="20.484003"
         x2="61.641361"
         y2="20.484003"
         gradientTransform="scale(1.0745707,0.93060418)"
         gradientUnits="userSpaceOnUse">
        <stop
           id="_Eqn2leSTavmwOdUcS5xzu"
           offset="0%"
           stop-color="rgb(28, 158, 117)"
           stop-opacity="0.57" />
        <stop
           id="_j6kfcS4pun-P6NaI_RbGY"
           offset="100%"
           stop-color="rgb(28, 158, 117)"
           stop-opacity="0.57" />
      </linearGradient>
      <linearGradient
         id="o_f0e2g634c_3812"
         x1="31.419058"
         y1="86.973068"
         x2="61.641361"
         y2="86.973068"
         gradientTransform="scale(1.0745707,0.93060418)"
         gradientUnits="userSpaceOnUse">
        <stop
           id="_504xnfF9aJ8B3Zmo2TlcK"
           offset="0%"
           stop-color="rgb(95, 184, 57)"
           stop-opacity="0.65" />
        <stop
           id="_OBCZye785zlBm9IH2IMZo"
           offset="100%"
           stop-color="rgb(95, 184, 57)"
           stop-opacity="0.65" />
      </linearGradient>
    </defs>
    <g
       id="g435"
       transform="matrix(2.0757856,0,0,1.8919937,-868.41314,-33.161932)">
      <polygon
         id="_Wwk3iq3G0ezD5GoNqFBJV"
         points="6.97,65.469 15.089,79.531 31.327,79.531 39.445,65.469 31.327,51.406 15.089,51.406 "
         fill="#2c9e1c"
         transform="matrix(4.7260833,0,0,4.7260833,117.56499,-155.54579)" />
      <polygon
         id="_0Su4OwRjujkSFmNRpIXq7"
         points="41.881,35.938 33.762,50 41.881,64.063 58.119,64.063 66.238,50 58.119,35.938 "
         fill="#0088ff"
         transform="matrix(4.7260833,0,0,4.7260833,-84.765701,-82.372429)" />
      <polygon
         id="_wIBIpgORDj0vjaTbXIjdQ"
         points="31.327,20.469 15.089,20.469 6.97,34.531 15.089,48.594 31.327,48.594 39.445,34.531 "
         fill="#1c9e75"
         transform="matrix(4.7260833,0,0,4.7260833,193.78198,-9.9780998)" />
      <polygon
         id="_rqERDTKphf1ItlaxsFDHs"
         points="93.03,34.531 84.911,20.469 68.673,20.469 60.555,34.531 68.673,48.594 84.911,48.594 "
         fill="url(#o_f0e2g634c_3810)"
         transform="matrix(4.7260833,0,0,4.7260833,-97.398582,57.039616)"
         style="fill:url(#o_f0e2g634c_3810)" />
      <polygon
         id="_K8JfXVSBjM6xQeBzSqNNK"
         points="66.238,19.063 58.119,5 41.881,5 33.762,19.063 41.881,33.125 58.119,33.125 "
         fill="url(#o_f0e2g634c_3811)"
         transform="matrix(4.7260833,0,0,4.7260833,106.035,130.21812)"
         style="fill:url(#o_f0e2g634c_3811)" />
      <polygon
         id="_pkpd5opzEyxxECyPV-sej"
         points="66.238,80.938 58.119,66.875 41.881,66.875 33.762,80.938 41.881,95 58.119,95 "
         fill="url(#o_f0e2g634c_3812)"
         transform="matrix(4.7260833,0,0,4.7260833,-46.344532,-295.05682)"
         style="fill:url(#o_f0e2g634c_3812)" />
    </g>
    <g
       id="g501"
       transform="matrix(3.0600743,0,0,3.2890139,-203.41054,-873.92088)">
      <path
         text="vulnman"
         text-anchor="middle"
         font-size="100px"
         letter-spacing="0"
         side="left"
         offset="0.5"
         dx="0"
         dy="0"
         space="preserve"
         href=""
         font-family="'Fjalla One'"
         font-scale="contain"
         x="0"
         y="0"
         fill="#000000"
         data-fl-textpath=""
         id="_997bKqAlwpyODHiJaG8Ij"
         d="m -152.53703,0 -15.14,-67.24 h 12.31 l 6.49,35.75 1.61,14.3 h 0.39 l 1.86,-14.3 6.44,-35.75 h 11.92 l -15.34,67.24 z m 33.20578,-15.72 v -51.52 h 12.35 v 50.54 q 0,4.44 1.37,6.18 1.36,1.73 4,1.73 v 0 q 1.86,0 3.61,-1.02 1.76,-1.03 3.18,-2.93 v 0 -54.5 h 12.35 V 0 h -9.42 l -1.22,-7.18 h -0.05 q -1.47,2.3 -3.1,3.84 -1.64,1.53 -3.42,2.44 -1.78,0.9 -3.64,1.29 -1.85,0.39 -3.71,0.39 v 0 q -5.91,0 -9.11,-4.1 -3.19,-4.1 -3.19,-12.4 z M -69.387734,0 v -88.82 h 12.36 V 0 Z m 25.249453,0 v -67.24 h 9.52 l 1.12,7.18 v 0.05 q 1.47,-2.29 3.15,-3.83 1.69,-1.54 3.49,-2.47 1.81,-0.93 3.69,-1.32 1.88,-0.39 3.73,-0.39 v 0 q 5.91,0 9.11,4.13 3.1999997,4.12 3.1999997,12.38 v 0 V 0 H -19.478281 v -51.07 q 0,-4.45 -1.37,-6.18 -1.37,-1.73 -4.01,-1.73 v 0 q -1.85,0 -3.68,1.22 -1.83,1.22 -3.25,3.37 v 0 V 0 Z M 5.6664062,0 v -67.24 h 9.5699998 l 1.07,7.18 v 0.05 q 1.47,-2.29 3.13,-3.83 1.66,-1.54 3.44,-2.47 1.78,-0.93 3.66,-1.32 1.88,-0.39 3.74,-0.39 v 0 q 3.95,0 6.69,1.91 2.73,1.9 4.15,5.71 v 0 q 1.46,-2.2 3.1,-3.66 1.63,-1.47 3.39,-2.35 1.76,-0.88 3.57,-1.24 1.8,-0.37 3.66,-0.37 v 0 q 5.86,0 9.06,4.13 3.19,4.12 3.19,12.38 v 0 V 0 h -12.35 v -51.07 q 0,-2.2 -0.34,-3.72 -0.34,-1.51 -1.03,-2.44 -0.68,-0.92 -1.76,-1.34 -1.07,-0.41 -2.58,-0.41 v 0 q -1.71,0 -3.42,1.24 -1.71,1.25 -3.13,3.44 v 0 q 0.05,0.44 0.05,0.88 0,0.44 0,0.88 v 0 V 0 h -12.35 v -51.07 q 0,-2.2 -0.34,-3.72 -0.34,-1.51 -1.03,-2.44 -0.68,-0.92 -1.76,-1.34 -1.07,-0.41 -2.58,-0.41 v 0 q -1.66,0 -3.37,1.22 -1.71,1.22 -3.08,3.37 v 0 V 0 Z M 89.165156,0.73 v 0 q -3.13,0 -5.55,-1.24 -2.41,-1.25 -4.07,-3.4 -1.66,-2.14 -2.52,-5.1 -0.85,-2.95 -0.85,-6.42 v 0 q 0,-4.15 1.02,-7.37 1.03,-3.23 3.01,-5.81 1.97,-2.59 4.9,-4.72 2.93,-2.12 6.79,-4.02 v 0 q 1.85,-0.93 4.17,-1.88 2.32,-0.96 4.130004,-1.64 v 0 -8.89 q 0,-1.95 -0.15,-3.63 -0.140004,-1.69 -0.700004,-2.93 -0.57,-1.25 -1.69,-1.96 -1.12,-0.7 -3.08,-0.7 v 0 q -1.31,0 -2.56,0.48 -1.24,0.49 -2.2,1.66 -0.95,1.18 -1.51,3.13 -0.56,1.95 -0.56,4.83 v 0 2.93 h -9.42 q -0.44,-1.9 -0.66,-3.49 -0.22,-1.59 -0.22,-3.15 v 0 q 0,-3.76 1.29,-6.64 1.29,-2.88 3.61,-4.83 2.32,-1.96 5.55,-2.96 3.22,-1 7.08,-1 v 0 q 5.02,0 8.350004,1.1 3.32,1.1 5.29,3.3 1.98,2.19 2.79,5.51 0.8,3.32 0.8,7.77 v 0 V 0 h -9.18 l -0.88,-5.76 q -2,2.88 -5.340004,4.69 -3.35,1.8 -7.64,1.8 z m 5.46,-9.52 v 0 q 1.57,0 3.06,-0.8 1.48,-0.81 2.510004,-1.98 v 0 -21.05 q -0.980004,0.39 -2.200004,0.93 -1.22,0.54 -2.63,1.42 v 0 q -1.32,0.83 -2.59,2 -1.27,1.17 -2.27,2.78 -1,1.61 -1.61,3.64 -0.61,2.03 -0.61,4.52 v 0 q 0,3.85 1.51,6.2 1.51,2.34 4.83,2.34 z M 125.00234,0 v -67.24 h 9.52 l 1.12,7.18 v 0.05 q 1.47,-2.29 3.15,-3.83 1.69,-1.54 3.49,-2.47 1.81,-0.93 3.69,-1.32 1.88,-0.39 3.73,-0.39 v 0 q 5.91,0 9.11,4.13 3.2,4.12 3.2,12.38 v 0 V 0 h -12.35 v -51.07 q 0,-4.45 -1.37,-6.18 -1.37,-1.73 -4.01,-1.73 v 0 q -1.85,0 -3.68,1.22 -1.83,1.22 -3.25,3.37 v 0 V 0 Z"
         transform="matrix(1.0715771,0,0,1.0715771,246.64467,391.71356)" />
    </g>
  </svg>
</svg>
