<svg style="opacity: 1; transition: opacity 0.3s ease 0s; overflow: visible;" id="__tmb-270" xmlns="http://www.w3.org/2000/svg" viewBox="0 0 512 512"><rect x="0" y="0" width="512" height="512" fill="none"></rect><svg xmlns="http://www.w3.org/2000/svg" viewBox="0 0 512 512" data-svgdocument="" id="_ulBRnfcOj3VyDQUqUOEKd" class="fl-svgdocument" overflow="hidden" style="overflow: visible;"><rect fill="none" x="0" y="0" width="100%" height="100%"></rect><defs id="_FS__db40CzrMADV5NKuuW" transform="matrix(2.1431543827056885, 0, 0, 2.1431543827056885, -72.2154769897461, -24.324373245239258)"><linearGradient id="o_f0e2g634c_3810" x1="0" y1="0.5" x2="1" y2="0.5"><stop id="_Uf-Qhgm0orNVLQFkSeLAv" offset="0%" stop-color="rgb(0, 136, 255)" stop-opacity="0.55"></stop><stop id="_7xsj3EiEHsXRJ-gMIEYK9" offset="100%" stop-color="rgb(0, 136, 255)" stop-opacity="0.55"></stop></linearGradient><linearGradient id="o_f0e2g634c_3811" x1="0" y1="0.5" x2="1" y2="0.5"><stop id="_Eqn2leSTavmwOdUcS5xzu" offset="0%" stop-color="rgb(28, 158, 117)" stop-opacity="0.57"></stop><stop id="_j6kfcS4pun-P6NaI_RbGY" offset="100%" stop-color="rgb(28, 158, 117)" stop-opacity="0.57"></stop></linearGradient><linearGradient id="o_f0e2g634c_3812" x1="0" y1="0.5" x2="1" y2="0.5"><stop id="_504xnfF9aJ8B3Zmo2TlcK" offset="0%" stop-color="rgb(95, 184, 57)" stop-opacity="0.65"></stop><stop id="_OBCZye785zlBm9IH2IMZo" offset="100%" stop-color="rgb(95, 184, 57)" stop-opacity="0.65"></stop></linearGradient></defs><polygon id="_Wwk3iq3G0ezD5GoNqFBJV" points="15.089,79.531 31.327,79.531 39.445,65.469 31.327,51.406 15.089,51.406 6.97,65.469  " fill="#2c9e1c" transform="matrix(4.726083278656006, 0, 0, 4.726083278656006, 117.56499481201172, -155.54579162597656)"></polygon><polygon id="_0Su4OwRjujkSFmNRpIXq7" points="33.762,50 41.881,64.063 58.119,64.063 66.238,50 58.119,35.938 41.881,35.938  " fill="#0088ff" transform="matrix(4.726083278656006, 0, 0, 4.726083278656006, -84.76570129394531, -82.37242889404297)"></polygon><polygon id="_wIBIpgORDj0vjaTbXIjdQ" points="15.089,20.469 6.97,34.531 15.089,48.594 31.327,48.594 39.445,34.531 31.327,20.469  " fill="#1c9e75" transform="matrix(4.726083278656006, 0, 0, 4.726083278656006, 193.781982421875, -9.978099822998047)"></polygon><polygon id="_rqERDTKphf1ItlaxsFDHs" points="84.911,20.469 68.673,20.469 60.555,34.531 68.673,48.594 84.911,48.594 93.03,34.531  " fill="url(#o_f0e2g634c_3810)" transform="matrix(4.726083278656006, 0, 0, 4.726083278656006, -97.3985824584961, 57.039615631103516)"></polygon><polygon id="_K8JfXVSBjM6xQeBzSqNNK" points="58.119,5 41.881,5 33.762,19.063 41.881,33.125 58.119,33.125 66.238,19.063  " fill="url(#o_f0e2g634c_3811)" transform="matrix(4.726083278656006, 0, 0, 4.726083278656006, 106.03500366210938, 130.21812438964844)"></polygon><polygon id="_pkpd5opzEyxxECyPV-sej" points="58.119,66.875 41.881,66.875 33.762,80.938 41.881,95 58.119,95 66.238,80.938  " fill="url(#o_f0e2g634c_3812)" transform="matrix(4.726083278656006, 0, 0, 4.726083278656006, -46.34453201293945, -295.05682373046875)"></polygon><path text="vulnman" text-anchor="middle" font-size="100" letter-spacing="0" side="left" offset="0.5" dx="0" dy="0" space="preserve" href="" font-family="Fjalla One" font-scale="contain" transform="matrix(1.0715770721435547, 0, 0, 1.0715770721435547, 246.64466857910156, 391.71356201171875)" x="0" y="0" fill="#000000" data-fl-textpath="" id="_997bKqAlwpyODHiJaG8Ij" d="M-152.53703125 0L-167.67703125-67.24L-155.36703125-67.24L-148.87703125000002-31.49L-147.26703125-17.19L-146.87703125000002-17.19L-145.01703125-31.49L-138.57703125-67.24L-126.65703125-67.24L-141.99703125 0L-152.53703125 0ZM-119.33125-15.72L-119.33125-67.24L-106.98125-67.24L-106.98125-16.7Q-106.98125-12.26 -105.61125-10.52Q-104.25125-8.79 -101.61125-8.79L-101.61125-8.79Q-99.75125-8.79 -98.00125-9.81Q-96.24125000000001-10.84 -94.82124999999999-12.74L-94.82124999999999-12.74L-94.82124999999999-67.24L-82.47125-67.24L-82.47125 0L-91.89125 0L-93.11125-7.18L-93.16125-7.18Q-94.63125-4.88 -96.26125-3.34Q-97.90125-1.81 -99.68125-0.9Q-101.46125 0 -103.32124999999999 0.39Q-105.17125 0.78 -107.03125 0.78L-107.03125 0.78Q-112.94125 0.78 -116.14125-3.32Q-119.33125-7.42 -119.33125-15.72L-119.33125-15.72ZM-69.387734375 0L-69.387734375-88.82L-57.027734375-88.82L-57.027734375 0L-69.387734375 0ZM-44.13828125 0L-44.13828125-67.24L-34.61828125-67.24L-33.498281250000005-60.06L-33.498281250000005-60.01Q-32.02828125-62.3 -30.34828125-63.84Q-28.65828125-65.38 -26.85828125-66.31Q-25.04828125-67.24 -23.16828125-67.63Q-21.28828125-68.02 -19.43828125-68.02L-19.43828125-68.02Q-13.52828125-68.02 -10.328281250000003-63.89Q-7.128281250000001-59.77 -7.128281250000001-51.51L-7.128281250000001-51.51L-7.128281250000001 0L-19.47828125 0L-19.47828125-51.07Q-19.47828125-55.52 -20.84828125-57.25Q-22.21828125-58.98 -24.85828125-58.98L-24.85828125-58.98Q-26.70828125-58.98 -28.53828125-57.76Q-30.36828125-56.54 -31.78828125-54.39L-31.78828125-54.39L-31.78828125 0L-44.13828125 0ZM 5.66640625 0L 5.66640625-67.24L 15.23640625-67.24L 16.30640625-60.06L 16.30640625-60.01Q 17.77640625-62.3  19.43640625-63.84Q 21.09640625-65.38  22.87640625-66.31Q 24.65640625-67.24  26.53640625-67.63Q 28.41640625-68.02  30.27640625-68.02L 30.27640625-68.02Q 34.22640625-68.02  36.96640625-66.11Q 39.69640625-64.21  41.11640625-60.4L 41.11640625-60.4Q 42.57640625-62.6  44.21640625-64.06Q 45.84640625-65.53  47.60640625-66.41Q 49.36640625-67.29  51.17640625-67.65Q 52.97640625-68.02  54.83640625-68.02L 54.83640625-68.02Q 60.69640625-68.02  63.89640625-63.89Q 67.08640625-59.77  67.08640625-51.51L 67.08640625-51.51L 67.08640625 0L 54.73640625 0L 54.73640625-51.07Q 54.73640625-53.27  54.39640625-54.79Q 54.05640625-56.3  53.36640625-57.23Q 52.68640625-58.15  51.60640625-58.57Q 50.53640625-58.98  49.02640625-58.98L 49.02640625-58.98Q 47.31640625-58.98  45.60640625-57.74Q 43.89640625-56.49  42.47640625-54.3L 42.47640625-54.3Q 42.52640625-53.86  42.52640625-53.42Q 42.52640625-52.98  42.52640625-52.54L 42.52640625-52.54L 42.52640625 0L 30.17640625 0L 30.17640625-51.07Q 30.17640625-53.27  29.83640625-54.79Q 29.49640625-56.3  28.80640625-57.23Q 28.12640625-58.15  27.04640625-58.57Q 25.97640625-58.98  24.46640625-58.98L 24.46640625-58.98Q 22.80640625-58.98  21.09640625-57.76Q 19.38640625-56.54  18.01640625-54.39L 18.01640625-54.39L 18.01640625 0L 5.66640625 0ZM 89.16515625 0.73L 89.16515625 0.73Q 86.03515625 0.73  83.61515625-0.51Q 81.20515625-1.76  79.54515625-3.91Q 77.88515625-6.05  77.02515625-9.01Q 76.17515625-11.96  76.17515625-15.43L 76.17515625-15.43Q 76.17515625-19.58  77.19515625-22.8Q 78.22515625-26.03  80.20515625-28.61Q 82.17515625-31.2  85.10515625-33.33Q 88.03515625-35.45  91.89515625-37.35L 91.89515625-37.35Q 93.74515625000001-38.28  96.06515625-39.23Q 98.38515625-40.19  100.19515625-40.87L 100.19515625-40.87L 100.19515625-49.76Q 100.19515625-51.71  100.04515625-53.39Q 99.90515625-55.08  99.34515625-56.32Q 98.77515625-57.57  97.65515625-58.28Q 96.53515625-58.98  94.57515624999999-58.98L 94.57515624999999-58.98Q 93.26515625-58.98  92.01515625-58.5Q 90.77515625-58.01  89.81515625-56.84Q 88.86515625-55.66  88.30515625-53.71Q 87.74515625000001-51.76  87.74515625000001-48.88L 87.74515625000001-48.88L 87.74515625000001-45.95L 78.32515625-45.95Q 77.88515625-47.85  77.66515625-49.44Q 77.44515625-51.03  77.44515625-52.59L 77.44515625-52.59Q 77.44515625-56.35  78.73515625-59.23Q 80.02515625-62.11  82.34515625-64.06Q 84.66515625-66.02  87.89515625-67.02Q 91.11515625-68.02  94.97515625-68.02L 94.97515625-68.02Q 99.99515625000001-68.02  103.32515624999999-66.92Q 106.64515625-65.82  108.61515625-63.62Q 110.59515625-61.43  111.40515625-58.11Q 112.20515625-54.79  112.20515625-50.34L 112.20515625-50.34L 112.20515625 0L 103.02515625 0L 102.14515625-5.76Q 100.14515625-2.88  96.80515625-1.07Q 93.45515625 0.73  89.16515625 0.73ZM 94.62515625-8.79L 94.62515625-8.79Q 96.19515625-8.79  97.68515625-9.59Q 99.16515625-10.4  100.19515625-11.57L 100.19515625-11.57L 100.19515625-32.62Q 99.21515625-32.23  97.99515625000001-31.69Q 96.77515625-31.15  95.36515625-30.27L 95.36515625-30.27Q 94.04515625-29.44  92.77515625-28.27Q 91.50515625-27.1  90.50515625-25.49Q 89.50515625-23.88  88.89515625-21.85Q 88.28515625-19.82  88.28515625-17.33L 88.28515625-17.33Q 88.28515625-13.48  89.79515625-11.13Q 91.30515625-8.79  94.62515625-8.79ZM 125.00234375 0L 125.00234375-67.24L 134.52234375-67.24L 135.64234375-60.06L 135.64234375-60.01Q 137.11234375-62.3  138.79234375-63.84Q 140.48234374999998-65.38  142.28234375-66.31Q 144.09234375-67.24  145.97234375-67.63Q 147.85234375-68.02  149.70234375-68.02L 149.70234375-68.02Q 155.61234375-68.02  158.81234375-63.89Q 162.01234375-59.77  162.01234375-51.51L 162.01234375-51.51L 162.01234375 0L 149.66234375 0L 149.66234375-51.07Q 149.66234375-55.52  148.29234375-57.25Q 146.92234375-58.98  144.28234375-58.98L 144.28234375-58.98Q 142.43234375-58.98  140.60234375-57.76Q 138.77234375-56.54  137.35234375-54.39L 137.35234375-54.39L 137.35234375 0L 125.00234375 0Z"></path></svg></svg>
